<svg width="145" height="28" viewBox="0 0 145 28" fill="none" xmlns="http://www.w3.org/2000/svg">
<path d="M39.8016 23.3272V19.9484L48.7765 8.75629H39.9072V4.84961H54.5837V8.22836L45.6353 19.4205H54.8477V23.3272H39.8016Z" fill="#F5C998"/>
<path d="M63.2976 23.6703C61.9954 23.6703 60.7988 23.4152 59.7077 22.9048C58.6342 22.3945 57.772 21.6026 57.1208 20.5291C56.4873 19.4381 56.1706 18.0831 56.1706 16.4641V15.9361C56.1706 14.4227 56.4873 13.1557 57.1208 12.135C57.772 11.0968 58.6342 10.3137 59.7077 9.78576C60.7988 9.25783 61.9954 8.99386 63.2976 8.99386C64.6175 8.99386 65.8141 9.25783 66.8876 9.78576C67.961 10.3137 68.8145 11.0968 69.448 12.135C70.0991 13.1557 70.4247 14.4227 70.4247 15.9361V16.4641C70.4247 18.0655 70.0991 19.4029 69.448 20.4764C68.8145 21.5322 67.961 22.3329 66.8876 22.8784C65.8141 23.4064 64.6175 23.6703 63.2976 23.6703ZM63.2976 20.2916C63.9312 20.2916 64.4679 20.142 64.9078 19.8428C65.3478 19.5261 65.6821 19.0773 65.9109 18.4966C66.1397 17.9159 66.254 17.2384 66.254 16.4641V15.9361C66.254 15.2322 66.1397 14.6163 65.9109 14.0884C65.6821 13.5605 65.3478 13.1469 64.9078 12.8478C64.4679 12.531 63.9312 12.3726 63.2976 12.3726C62.6641 12.3726 62.1274 12.531 61.6874 12.8478C61.2475 13.1469 60.9131 13.5605 60.6844 14.0884C60.4556 14.6163 60.3412 15.2322 60.3412 15.9361V16.4641C60.3412 17.2736 60.4556 17.9687 60.6844 18.5494C60.9131 19.1125 61.2475 19.5437 61.6874 19.8428C62.1274 20.142 62.6641 20.2916 63.2976 20.2916Z" fill="#F5C998"/>
<path d="M77.5414 23.4856C76.4152 23.4856 75.4913 23.3536 74.7698 23.0896C74.0483 22.808 73.5116 22.3065 73.1596 21.585C72.8253 20.8459 72.6581 19.7812 72.6581 18.391V4.84961H76.7231V17.7839C76.7231 18.6462 76.8375 19.2533 77.0663 19.6053C77.3127 19.9396 77.8142 20.1068 78.5709 20.1068C78.7821 20.1068 78.9581 20.1068 79.0988 20.1068C79.2396 20.0892 79.3804 20.0716 79.5212 20.054V23.4064C79.3452 23.424 79.1516 23.4328 78.9405 23.4328C78.7469 23.4504 78.5269 23.4592 78.2805 23.4592C78.0518 23.4768 77.8054 23.4856 77.5414 23.4856Z" fill="#F5C998"/>
<path d="M81.8958 23.3272V4.84961H90.7387C92.9032 4.84961 94.4782 5.28075 95.4636 6.14304C96.4491 6.98773 96.9419 8.20197 96.9419 9.78576C96.9419 10.736 96.6955 11.5543 96.2028 12.2406C95.71 12.9093 95.0501 13.3933 94.223 13.6924C95.2965 13.9388 96.15 14.4403 96.7835 15.197C97.417 15.9361 97.7337 16.904 97.7337 18.1007C97.7337 19.1741 97.4962 20.1068 97.021 20.8987C96.5635 21.673 95.842 22.2713 94.8565 22.6937C93.8711 23.116 92.5864 23.3272 91.0026 23.3272H81.8958ZM86.6472 19.6845H89.9468C91.0906 19.6845 91.8825 19.5173 92.3225 19.1829C92.7624 18.831 92.9824 18.2942 92.9824 17.5727C92.9824 16.8512 92.7536 16.3145 92.2961 15.9625C91.8561 15.6106 91.0466 15.4346 89.8676 15.4346H86.6472V19.6845ZM86.6472 12.2142H89.5772C90.5979 12.2142 91.2842 12.0559 91.6362 11.7391C92.0057 11.4047 92.1905 10.9384 92.1905 10.3401C92.1905 9.72417 92.0057 9.26663 91.6362 8.96747C91.2842 8.65071 90.6067 8.49233 89.6036 8.49233H86.6472V12.2142Z" fill="white"/>
<path d="M104.335 23.6703C103.332 23.6703 102.47 23.4768 101.748 23.0896C101.044 22.7025 100.507 22.1745 100.138 21.5058C99.7683 20.8195 99.5836 20.0628 99.5836 19.2357C99.5836 17.8455 100.006 16.7808 100.851 16.0417C101.713 15.3026 103.006 14.9331 104.731 14.9331H108.69V14.3524C108.69 13.5077 108.488 12.9269 108.083 12.6102C107.696 12.2934 107.151 12.135 106.447 12.135C105.778 12.135 105.285 12.2406 104.968 12.4518C104.652 12.6454 104.476 12.9709 104.441 13.4285H100.375C100.428 12.5838 100.692 11.8271 101.167 11.1584C101.66 10.4897 102.355 9.96174 103.253 9.57459C104.168 9.18744 105.276 8.99386 106.579 8.99386C107.81 8.99386 108.893 9.17864 109.825 9.54819C110.758 9.91774 111.48 10.5161 111.99 11.3432C112.518 12.1526 112.782 13.2437 112.782 14.6163V19.7636C112.782 20.5027 112.799 21.1539 112.835 21.717C112.87 22.2625 112.923 22.7992 112.993 23.3272H109.113C109.095 23.028 109.069 22.764 109.034 22.5353C109.016 22.3065 109.007 22.0249 109.007 21.6906C108.585 22.2537 107.995 22.7289 107.239 23.116C106.499 23.4856 105.532 23.6703 104.335 23.6703ZM105.655 20.7931C106.235 20.7931 106.755 20.6875 107.212 20.4764C107.67 20.2652 108.03 19.9484 108.294 19.5261C108.558 19.0861 108.69 18.5934 108.69 18.0479V17.4671H105.523C104.924 17.4671 104.476 17.6255 104.177 17.9423C103.895 18.259 103.754 18.6198 103.754 19.0245C103.754 19.5525 103.895 19.9836 104.177 20.318C104.476 20.6347 104.968 20.7931 105.655 20.7931Z" fill="white"/>
<path d="M115.292 23.3272V9.33702H119.04V11.2376C119.392 10.6041 119.937 10.0761 120.676 9.65378C121.433 9.21383 122.436 8.99386 123.686 8.99386C125.357 8.99386 126.616 9.4426 127.46 10.3401C128.323 11.2376 128.754 12.531 128.754 14.2204V23.3272H124.689V15.1443C124.689 14.2292 124.486 13.5429 124.082 13.0853C123.694 12.6102 123.052 12.3726 122.155 12.3726C121.504 12.3726 120.967 12.5046 120.544 12.7686C120.14 13.0149 119.841 13.3493 119.647 13.7716C119.453 14.1764 119.357 14.6339 119.357 15.1443V23.3272H115.292Z" fill="white"/>
<path d="M131.274 23.3272V4.84961H135.339V14.7219L139.853 9.33702H144.446L139.536 15.2234L145 23.3272H140.301L136.791 18.0479L135.339 19.7372V23.3272H131.274Z" fill="white"/>
<path fill-rule="evenodd" clip-rule="evenodd" d="M28.1736 21.6856C28.1736 18.3853 25.4115 15.7098 22.0042 15.7098H13.7783L9.15129 20.1916H21.7986V23.1795H4.8327V20.1916L9.45976 15.7098H0.908742C0.406878 15.7099 4.54382e-05 16.1039 0 16.59V26.7811C4.55376e-05 27.2672 0.406879 27.6613 0.908742 27.6613H22.0042C25.4115 27.6613 28.1736 24.9859 28.1736 21.6856Z" fill="#F5C998"/>
<path fill-rule="evenodd" clip-rule="evenodd" d="M28.1736 6.54703C28.1736 3.24672 25.4115 0.571289 22.0042 0.571289H0.908742C0.406878 0.571333 4.54382e-05 0.965395 0 1.4515V11.6426C4.55376e-05 12.1287 0.406879 12.5227 0.908742 12.5228H12.7501L17.48 7.94137H4.62706V4.9535H21.7986V7.94137L17.0687 12.5228H22.0042C25.4115 12.5228 28.1736 9.84734 28.1736 6.54703Z" fill="#F5C998"/>
</svg>
