<svg width="29" height="28" viewBox="0 0 29 28" fill="none" xmlns="http://www.w3.org/2000/svg">
<path fill-rule="evenodd" clip-rule="evenodd" d="M28.1736 21.6855C28.1736 18.3852 25.4115 15.7098 22.0042 15.7098H13.7783L9.15129 20.1916H21.7986V23.1795H4.8327V20.1916L9.45976 15.7098H0.908742C0.406878 15.7098 4.54382e-05 16.1039 0 16.59V26.7811C4.55376e-05 27.2672 0.406879 27.6612 0.908742 27.6613H22.0042C25.4115 27.6613 28.1736 24.9858 28.1736 21.6855Z" fill="#F5C998"/>
<path fill-rule="evenodd" clip-rule="evenodd" d="M28.1736 6.54699C28.1736 3.24668 25.4115 0.571247 22.0042 0.571247H0.908742C0.406878 0.571291 4.54382e-05 0.965353 0 1.45146V11.6425C4.55376e-05 12.1286 0.406879 12.5227 0.908742 12.5227H12.7501L17.48 7.94133H4.62706V4.95346H21.7986V7.94133L17.0687 12.5227H22.0042C25.4115 12.5227 28.1736 9.8473 28.1736 6.54699Z" fill="#F5C998"/>
</svg>
